<?xml version="1.0" encoding="UTF-8" standalone="no"?>
<!-- Created with Inkscape (http://www.inkscape.org/) -->

<svg
   width="135.46683mm"
   height="135.46666mm"
   viewBox="0 0 135.46683 135.46666"
   version="1.1"
   id="svg1"
   xml:space="preserve"
   inkscape:version="1.3.2 (091e20ef0f, 2023-11-25, custom)"
   sodipodi:docname="give.svg"
   xmlns:inkscape="http://www.inkscape.org/namespaces/inkscape"
   xmlns:sodipodi="http://sodipodi.sourceforge.net/DTD/sodipodi-0.dtd"
   xmlns="http://www.w3.org/2000/svg"
   xmlns:svg="http://www.w3.org/2000/svg"><sodipodi:namedview
     id="namedview1"
     pagecolor="#ffffff"
     bordercolor="#000000"
     borderopacity="0.25"
     inkscape:showpageshadow="2"
     inkscape:pageopacity="0.0"
     inkscape:pagecheckerboard="0"
     inkscape:deskcolor="#d1d1d1"
     inkscape:document-units="mm"
     inkscape:zoom="0.64104041"
     inkscape:cx="109.97747"
     inkscape:cy="276.11364"
     inkscape:window-width="1920"
     inkscape:window-height="1080"
     inkscape:window-x="0"
     inkscape:window-y="0"
     inkscape:window-maximized="1"
     inkscape:current-layer="layer1" /><defs
     id="defs1" /><g
     inkscape:label="Layer 1"
     inkscape:groupmode="layer"
     id="layer1"
     transform="translate(-2.8217454,-135.61737)"><path
       style="fill:#000000"
       d="m 110.61316,270.18444 c -0.55454,-0.55454 -0.89958,-1.15939 -0.89958,-1.57695 v -0.67737 l -27.05364,-0.0902 c -26.793191,-0.0893 -27.078353,-0.0958 -29.61984,-0.67469 -5.30578,-1.20845 -10.073227,-3.31337 -14.333276,-6.32843 -1.39508,-0.98737 -5.276315,-4.6365 -11.048661,-10.38793 -10.329039,-10.29161 -10.416452,-10.41157 -10.416452,-14.29541 0,-2.01025 0.09344,-2.44433 0.862458,-4.00642 1.005448,-2.04235 2.442721,-3.44264 4.529747,-4.41319 1.230821,-0.57237 1.874361,-0.69248 3.73592,-0.69722 3.779964,-0.01 4.074066,0.19777 13.493749,9.51544 7.651753,7.5689 9.855007,9.4446 11.773958,10.02358 0.500667,0.15106 0.529496,0.0352 0.535281,-2.15192 0.0052,-1.97393 0.112048,-2.52902 0.731346,-3.80023 0.854755,-1.75451 2.852081,-3.71674 4.617983,-4.53683 1.199745,-0.55716 1.682033,-0.59109 10.224357,-0.71921 l 8.96521,-0.13447 2.27958,-2.62471 c 2.79321,-3.21609 5.16672,-5.07836 8.62957,-6.7708 6.29443,-3.07635 13.20832,-3.44459 19.76259,-1.05258 2.04483,0.74627 2.21983,0.77042 2.52809,0.34884 0.18216,-0.24911 0.3312,-0.54618 0.3312,-0.66015 0,-0.11397 0.35127,-0.38887 0.78061,-0.61089 0.66699,-0.34491 2.57718,-0.40367 13.12333,-0.40367 h 12.34272 l 0.89959,0.89958 0.89958,0.89959 v 22.01333 22.01333 l -0.89958,0.89958 -0.89959,0.89959 h -12.48833 -12.48833 z m 22.38375,-22.91291 V 228.7507 h -8.99583 -8.99583 v 18.52083 18.52083 h 8.99583 8.99583 z m -23.28333,-0.0995 v -15.44535 l -1.78594,-0.93451 c -3.19806,-1.67342 -5.28882,-2.16508 -9.19427,-2.1621 -3.89034,0.003 -5.68665,0.38308 -8.76741,1.85522 -2.71241,1.29613 -5.04996,3.26337 -7.94167,6.68358 -1.39234,1.64681 -2.82381,3.10532 -3.18105,3.24115 -0.35724,0.13582 -4.71966,0.24739 -9.69428,0.24793 -8.558563,9.4e-4 -9.091104,0.0292 -9.907065,0.52675 -2.342465,1.42822 -2.55941,4.39344 -0.464692,6.35143 l 0.707648,0.66146 15.655509,0.13229 c 11.9891,0.10131 15.79351,0.21117 16.24476,0.46909 0.80392,0.45949 1.13055,1.15298 1.13055,2.40041 0,0.85014 -0.15634,1.18376 -0.81405,1.73719 l -0.81405,0.68498 H 74.13605 c -18.381726,0 -19.13993,-0.0525 -23.159966,-1.60512 -4.455855,-1.72089 -5.605528,-2.62232 -14.155207,-11.09881 -4.365625,-4.32825 -8.344183,-8.0758 -8.841241,-8.3279 -3.307339,-1.67741 -6.942718,2.25432 -5.012344,5.42094 0.576615,0.94589 12.888241,13.38824 16.234835,16.40721 3.405602,3.0722 7.380301,5.34503 11.773957,6.73264 4.436592,1.40116 4.719539,1.41362 32.742186,1.44124 l 25.99531,0.0256 z M 42.772288,207.86599 c -1.311023,-0.3988 -2.342488,-1.0806 -3.264662,-2.15795 -1.737035,-2.02934 -1.760708,-2.22821 -1.760708,-14.79131 v -11.28137 l -1.736259,-1.10691 c -1.491582,-0.95093 -1.93901,-1.10692 -3.175,-1.10692 h -1.43874 v 2.01083 c 0,1.93406 -0.03435,2.04519 -0.899584,2.91042 l -0.899583,0.89958 H 17.109419 4.6210875 l -0.899583,-0.89958 -0.899584,-0.89958 v -21.86772 c 0,-23.74508 -0.04805,-22.96045 1.447815,-23.64202 0.50613,-0.2306 4.024853,-0.31609 13.0108835,-0.31609 h 12.317133 l 0.899583,0.89958 c 0.759904,0.75991 0.899584,1.08684 0.899584,2.10555 v 1.20597 l 19.645311,0.0807 19.64531,0.0807 1.85208,0.62247 c 3.38366,1.13722 5.24649,2.31488 12.56483,7.94334 l 7.2587,5.5826 h 17.8885 c 20.36742,0 19.51161,-0.0839 21.72387,2.1284 2.16732,2.16733 2.07973,1.11473 2.07973,24.99228 0,23.24876 0.0674,22.31339 -1.76258,24.45134 -0.51706,0.60407 -1.43334,1.3621 -2.03616,1.6845 -1.09185,0.58394 -1.1569,0.58647 -16.96294,0.66039 -11.6722,0.0546 -16.06468,-0.008 -16.61508,-0.2357 -0.83689,-0.34665 -1.51699,-1.45268 -1.51699,-2.46703 0,-0.36873 0.34732,-1.05925 0.77182,-1.53449 l 0.77182,-0.86407 10.31759,-0.075 10.31759,-0.075 0.54943,-1.80886 c 1.29662,-4.26885 5.0042,-7.89597 9.35248,-9.14952 l 1.52135,-0.43858 -0.0117,-32.27482 -39.13259,0.29877 c -26.999473,9.7e-4 -27.68341,0.0134 -28.512747,0.51909 -1.399231,0.85316 -1.612851,3.09177 -0.409305,4.28929 0.255901,0.25461 3.257518,2.00685 6.670262,3.89385 l 6.20499,3.43092 3.706353,5.90325 c 2.771289,4.41394 -1.329743,10.32923 -4.009163,12.61775 -0.642823,0.54904 -0.52546,-0.75722 -2.4637,-0.75722 -2.2995,0 -13.679912,-1.98308 -17.42795,-3.03688 -2.710054,-0.76196 -6.574111,-2.13592 -8.818121,-3.13549 l -1.521354,-0.67768 v 4.46459 4.46458 l 1.521354,0.43858 c 4.348277,1.25355 8.055856,4.88067 9.352478,9.14952 l 0.549426,1.80886 10.317592,0.075 10.317595,0.075 0.77182,0.86407 c 0.4245,0.47524 0.77182,1.16576 0.77182,1.53449 0,0.97965 -0.65325,2.08269 -1.44782,2.44472 -0.79066,0.36025 -31.249962,0.42497 -32.420562,0.0689 z m 6.08713,-5.31958 c 0,-0.60613 -1.139079,-2.45146 -2.116667,-3.42905 -0.977587,-0.97758 -2.822918,-2.11666 -3.429042,-2.11666 -0.169547,0 -0.275124,0.8912 -0.275124,2.32238 0,3.34553 0.145222,3.49845 3.322294,3.49845 1.553119,0 2.498539,-0.1041 2.498539,-0.27512 z m 79.374992,-0.25405 c 0.45078,-0.45077 0.52917,-0.88194 0.52917,-2.91041 0,-1.48622 -0.10439,-2.38125 -0.27772,-2.38125 -0.44743,0 -1.89168,0.80372 -2.97684,1.6566 -0.96379,0.7575 -2.5586,3.14213 -2.56379,3.8335 -0.002,0.24027 0.64883,0.33073 2.37877,0.33073 2.02847,0 2.45964,-0.0784 2.91041,-0.52917 z m -55.74923,-18.7031 c 1.73384,-0.87381 2.34374,-3.65879 1.17892,-5.38338 -0.46044,-0.68173 -2.3036,-1.82839 -8.135933,-5.06155 -6.083754,-3.37253 -7.777732,-4.434 -8.767872,-5.49407 -3.719682,-3.98239 -2.364362,-10.49371 2.669013,-12.82264 1.149973,-0.5321 1.719731,-0.56307 12.681922,-0.68942 l 11.47786,-0.13229 -3.78442,-2.91042 c -4.70388,-3.61752 -5.98,-4.44557 -8.02573,-5.20773 L 70.15838,145.284 50.777647,145.2034 31.396919,145.1228 v 13.50349 13.50349 h 2.199154 2.199154 l 2.894075,1.8517 c 5.242199,3.35409 11.048123,5.90298 16.902479,7.42046 2.335046,0.60525 8.121546,1.70961 14.169719,2.7043 0.83735,0.13772 1.77926,-0.0411 2.72368,-0.51706 z M 26.105252,159.42987 V 140.90904 H 17.109419 8.1135875 v 18.52083 18.52083 h 8.9958315 8.995833 z m 58.502038,48.3141 c -1.47831,-0.81937 -1.74716,-2.61979 -0.58537,-3.92007 0.63446,-0.71007 0.95853,-0.85805 1.87916,-0.85805 2.64435,0 3.60568,3.57001 1.28455,4.77031 -0.8987,0.46474 -1.7493,0.46731 -2.57834,0.008 z"
       id="path1"
       sodipodi:nodetypes="sscscssssscsssssscssssssscccccccccscccccccccccsssssscscsssscsssssssscccsscsscsscccccssscsscccsscsssssscsscccsscccssscssssscccsscccsssccsssssssssscsscssssscsscccccccsssccccccccccccssscc" /></g></svg>
